<svg id="surface1" xmlns="http://www.w3.org/2000/svg" width="17.927" height="7.171" viewBox="0 0 17.927 7.171">
  <path id="Path_1422" data-name="Path 1422" d="M241.2,86.891H240v.6h1.2Zm0,0" transform="translate(-230.738 -84.202)" fill="#b2c1d0"/>
  <path id="Path_1423" data-name="Path 1423" d="M.256,2.288,2.286,2a10.244,10.244,0,0,1,1.15-.609A10.062,10.062,0,0,1,7.6.492h.353A10.156,10.156,0,0,1,12.8,1.729l1.024.559a7.06,7.06,0,0,1,3.417.926,1.364,1.364,0,0,1,.685,1.181V6.169a.3.3,0,0,1-.3.3h-1a1.786,1.786,0,0,1-3.371,0H5.271a1.786,1.786,0,0,1-3.371,0H1.793a.3.3,0,0,1-.111-.021L.714,6.058A1.13,1.13,0,0,1,0,5V2.583A.3.3,0,0,1,.256,2.288ZM13.768,6.109a1.2,1.2,0,1,0-.024-.239A1.2,1.2,0,0,0,13.768,6.109Zm-5.4-.239h4.781a1.793,1.793,0,1,1,3.585,0h.6V4.395a.764.764,0,0,0-.385-.662,6.46,6.46,0,0,0-3.2-.85H8.366Zm0-3.585h4.206l-.058-.031A9.554,9.554,0,0,0,8.366,1.1Zm-.6-1.2H7.6a9.457,9.457,0,0,0-3.516.674l.522.522H7.768ZM2.415,6.109A1.2,1.2,0,1,0,2.39,5.87,1.2,1.2,0,0,0,2.415,6.109ZM.6,3.181h.9v.6H.6V5a.535.535,0,0,0,.338.5l.857.344c0-.027,0-.055.005-.082s0-.06.005-.09.009-.06.014-.09.008-.06.014-.087.015-.057.022-.086.014-.057.023-.085.02-.054.03-.082.019-.055.03-.082.025-.051.037-.077.025-.053.039-.079.03-.048.043-.071.03-.051.047-.076.033-.044.049-.066.035-.048.054-.071.037-.041.056-.06.039-.044.06-.065.041-.037.062-.056.043-.04.066-.06.046-.034.068-.051.045-.035.069-.051.051-.03.076-.047.047-.03.071-.043.054-.026.082-.04.049-.025.074-.035.06-.022.09-.033.049-.019.075-.027.069-.018.1-.027.045-.013.067-.017S3.3,4.1,3.337,4.1c.022,0,.043-.008.065-.01a1.816,1.816,0,0,1,.182-.009A1.794,1.794,0,0,1,5.377,5.87H7.768V2.882H4.482a.3.3,0,0,1-.211-.088L3.5,2.02a9.581,9.581,0,0,0-.947.518.3.3,0,0,1-.116.042L.6,2.842Zm0,0" transform="translate(0 -0.492)" fill="#b2c1d0"/>
</svg>
