<svg id="Group_6133" data-name="Group 6133" xmlns="http://www.w3.org/2000/svg" width="16.5" height="16.5" viewBox="0 0 16.5 16.5">
  <path id="Path_3253" data-name="Path 3253" d="M32.355,23.991a4.8,4.8,0,0,1,.8.341l.512-.284,1.366-.683,1.024,1.024,1.081,1.081-.683,1.309-.284.569a3.951,3.951,0,0,1,.284.74l.626.228,1.422.455v2.959l-1.422.455-.626.171a4.46,4.46,0,0,1-.284.8l.284.512.683,1.366-1.081,1.024-1.024,1.081-1.366-.683-.512-.284a4.46,4.46,0,0,1-.8.284l-.171.626L31.729,38.5H28.771l-.455-1.422-.228-.626a3.951,3.951,0,0,1-.74-.284l-.569.284-1.309.683L24.39,36.053l-1.024-1.024.683-1.366.284-.512a4.8,4.8,0,0,1-.341-.8l-.569-.171L22,31.729V28.771l1.422-.455.569-.228a4.29,4.29,0,0,1,.341-.74l-.284-.569-.683-1.309L24.39,24.39l1.081-1.024,1.309.683.569.284a4.29,4.29,0,0,1,.74-.341l.228-.569L28.771,22h2.959l.455,1.422ZM30.25,25.471a4.76,4.76,0,0,1,4.722,4.779,4.711,4.711,0,0,1-4.722,4.722,4.76,4.76,0,0,1-4.779-4.722A4.808,4.808,0,0,1,30.25,25.471Z" transform="translate(-22 -22)" fill="#003165" fill-rule="evenodd"/>
  <path id="Path_3254" data-name="Path 3254" d="M107.584,104A3.556,3.556,0,1,1,104,107.584,3.558,3.558,0,0,1,107.584,104Zm0,1.65a1.906,1.906,0,1,1-1.934,1.934A1.907,1.907,0,0,1,107.584,105.65Z" transform="translate(-99.334 -99.334)" fill="#003165" fill-rule="evenodd"/>
</svg>
