<svg xmlns="http://www.w3.org/2000/svg" width="47.885" height="47.885" viewBox="0 0 47.885 47.885">
  <g id="noun_Ticket_773355" transform="translate(23.943 -9.111) rotate(45)">
    <path id="Path_447" data-name="Path 447" d="M13.61,27.3l5.838,5.838L28.6,23.983l-5.838-5.838Zm9.731-.662-3.879,3.88a.583.583,0,0,1-.825-.824l3.879-3.88a.583.583,0,0,1,.825.824Zm-.353-4.485L17.043,28.1a.583.583,0,0,1-.825-.824l5.946-5.946a.583.583,0,0,1,.825.824Zm-.951-9.5c-.007-.007-.009-.016-.015-.022L6.458,28.194l-.016,2.435,2.434-.017-.016,2.435,2.435-.015-.016,2.434,2.435-.016L13.7,37.884l2.434-.016L16.117,40.3l2.435-.016L34.116,24.722c-.007-.006-.016-.008-.023-.015Zm7.8,11.743L19.86,34.372a.584.584,0,0,1-.825,0l-6.662-6.663a.583.583,0,0,1,0-.824l9.977-9.977a.583.583,0,0,1,.824,0l6.663,6.663a.583.583,0,0,1,0,.824Zm8.046-8.278V13.7H35.465V11.279H33.046V8.861H30.628V6.443H28.209l-5.37,5.37c.007.006.016.008.023.015L34.918,23.883c.007.007.009.016.015.023l5.37-5.37V16.117H37.883Z" transform="translate(0 0)" fill="#003165"/>
  </g>
</svg>
