<svg xmlns="http://www.w3.org/2000/svg" width="28.75" height="23.001" viewBox="0 0 28.75 23.001">
  <g id="ticket" transform="translate(0 -42.666)">
    <g id="Group_6185" data-name="Group 6185" transform="translate(0 42.666)">
      <path id="Path_3270" data-name="Path 3270" d="M28.751,51.291v-5.75a2.874,2.874,0,0,0-2.875-2.875h-23A2.862,2.862,0,0,0,.014,45.541v5.75a2.876,2.876,0,0,1,2.861,2.875A2.873,2.873,0,0,1,.007,57.041L0,62.791a2.874,2.874,0,0,0,2.875,2.875h23a2.874,2.874,0,0,0,2.875-2.875v-5.75a2.875,2.875,0,1,1,0-5.75ZM15.813,62.073H12.938V59.2h2.875v2.875Zm0-6.469H12.938V52.729h2.875V55.6Zm0-6.469H12.938V46.26h2.875v2.875Z" transform="translate(0 -42.666)" fill="#003165"/>
    </g>
  </g>
</svg>
