<svg xmlns="http://www.w3.org/2000/svg" width="12.208" height="10.852" viewBox="0 0 12.208 10.852">
  <path id="Icon_material-directions-car" data-name="Icon material-directions-car" d="M17.048,11.1a1.013,1.013,0,0,0-.963-.685H8.624a1.02,1.02,0,0,0-.963.685L6.25,15.164V20.59a.68.68,0,0,0,.678.678h.678a.68.68,0,0,0,.678-.678v-.678h8.139v.678a.68.68,0,0,0,.678.678h.678a.68.68,0,0,0,.678-.678V15.164L17.048,11.1ZM8.624,17.877A1.017,1.017,0,1,1,9.641,16.86,1.016,1.016,0,0,1,8.624,17.877Zm7.461,0A1.017,1.017,0,1,1,17.1,16.86,1.016,1.016,0,0,1,16.085,17.877ZM7.606,14.486l1.017-3.052h7.461L17.1,14.486Z" transform="translate(-6.25 -10.417)" fill="#003165"/>
</svg>
