<svg id="clock-circular-outline" xmlns="http://www.w3.org/2000/svg" width="9.667" height="9.667" viewBox="0 0 9.667 9.667">
  <g id="Group_5467" data-name="Group 5467">
    <path id="Path_456" data-name="Path 456" d="M4.833,0A4.833,4.833,0,1,0,9.667,4.833,4.839,4.839,0,0,0,4.833,0Zm0,8.638a3.8,3.8,0,1,1,3.8-3.8A3.809,3.809,0,0,1,4.833,8.638Z" fill="#b2c1d0"/>
    <path id="Path_457" data-name="Path 457" d="M47.034,19.84H44.862V17.228a.4.4,0,1,0-.8,0v3.01a.4.4,0,0,0,.4.4h2.57a.4.4,0,1,0,0-.8Z" transform="translate(-39.682 -15.156)" fill="#b2c1d0"/>
  </g>
</svg>
