<svg xmlns="http://www.w3.org/2000/svg" width="21" height="28" viewBox="0 0 21 28">
  <g id="noun_Delete_920825" transform="translate(-32 -27)">
    <path id="Path_3260" data-name="Path 3260" d="M52.417,29.333h-5.25V28.167A1.17,1.17,0,0,0,46,27H39a1.17,1.17,0,0,0-1.167,1.167v1.167h-5.25a.551.551,0,0,0-.583.583V32.25a.551.551,0,0,0,.583.583H52.417A.551.551,0,0,0,53,32.25V29.917A.551.551,0,0,0,52.417,29.333ZM39,28.167h7v1.167H39Zm-5.833,24.5A2.34,2.34,0,0,0,35.5,55h14a2.34,2.34,0,0,0,2.333-2.333V34H33.167ZM46,36.333h2.333V51.5H46Zm-4.667,0h2.333V51.5H41.333Zm-4.667,0H39V51.5H36.667Z" fill="#fff"/>
  </g>
</svg>
