<svg id="dollar-coin" xmlns="http://www.w3.org/2000/svg" width="17" height="17" viewBox="0 0 17 17">
  <g id="Group_6121" data-name="Group 6121">
    <path id="Path_3237" data-name="Path 3237" d="M8.5,0A8.5,8.5,0,1,0,17,8.5,8.51,8.51,0,0,0,8.5,0Zm0,15.74A7.24,7.24,0,1,1,15.74,8.5,7.249,7.249,0,0,1,8.5,15.74Z" />
    <path id="Path_3238" data-name="Path 3238" d="M12.8,10.767q0,.6.809,1V9.924Q12.8,10.069,12.8,10.767Z" transform="translate(-5.548 -4.3)" />
    <path id="Path_3239" data-name="Path 3239" d="M10.017,3.5a6.517,6.517,0,1,0,6.517,6.517A6.525,6.525,0,0,0,10.017,3.5Zm2.175,9.856a2.948,2.948,0,0,1-1.762.719v1.263H9.58V14.11a4.755,4.755,0,0,1-2.2-.535V11.963a3.38,3.38,0,0,0,1.006.507,4.645,4.645,0,0,0,1.192.268V10.62a4.485,4.485,0,0,1-1.859-1.1,2.161,2.161,0,0,1-.5-1.44A2.113,2.113,0,0,1,7.87,6.528,2.715,2.715,0,0,1,9.58,5.78V4.7h.849V5.756a4.3,4.3,0,0,1,1.832.4v1.57a4.39,4.39,0,0,0-1.832-.6v2.2a4.684,4.684,0,0,1,1.827,1.05A2.019,2.019,0,0,1,12.81,11.8,2.06,2.06,0,0,1,12.192,13.356Z" transform="translate(-1.517 -1.517)"/>
    <path id="Path_3240" data-name="Path 3240" d="M15.729,16.646v1.762c.555-.084.833-.363.833-.832Q16.56,17.009,15.729,16.646Z" transform="translate(-6.816 -7.213)" />
  </g>
</svg>
