<svg id="Group_5487" data-name="Group 5487" xmlns="http://www.w3.org/2000/svg" width="16.667" height="16.667" viewBox="0 0 16.667 16.667">
  <path id="Path_484" data-name="Path 484" d="M114.23,27,107.7,33.532l-.7,3.441,3.441-.7,6.532-6.532Zm-4.089,8.676-2.294.449.449-2.294Z" transform="translate(-101.665 -25.641)" fill="#fff" fill-rule="evenodd"/>
  <path id="Path_485" data-name="Path 485" d="M264.391,1.458,262.945.012a1,1,0,0,0-1.346,0L261,.66l2.742,2.792.648-.648A1,1,0,0,0,264.391,1.458Z" transform="translate(-247.986 0.25)" fill="#fff" fill-rule="evenodd"/>
  <path id="Path_486" data-name="Path 486" d="M2.344,47h8.177l-1.1,1.047H2.344a1.32,1.32,0,0,0-1.3,1.3v9.624a1.32,1.32,0,0,0,1.3,1.3h9.624a1.32,1.32,0,0,0,1.3-1.3V51.887l1.047-1.047v8.128a2.341,2.341,0,0,1-2.344,2.344H2.344A2.341,2.341,0,0,1,0,58.967V49.344A2.341,2.341,0,0,1,2.344,47Z" transform="translate(0 -44.644)" fill="#fff"/>
</svg>
