<svg xmlns="http://www.w3.org/2000/svg" width="17.357" height="15.378" viewBox="0 0 17.357 15.378">
  <g id="icon" transform="translate(0 -1.54)">
    <path id="Path_3234" data-name="Path 3234" d="M3.674,18.145a.36.36,0,0,0,.364.388l4.375-.005.006-3.585s-.062-.591.512-.591h1.815a.563.563,0,0,1,.637.591l-.008,3.573h4.283a.449.449,0,0,0,.459-.483V11.424L10.082,6.055,3.674,11.424Z" transform="translate(-1.314 -1.615)"/>
    <path id="Path_3235" data-name="Path 3235" d="M0,9.309s.544,1,1.731,0l7.09-6,6.648,5.961c1.373.991,1.888,0,1.888,0L8.821,1.54Z" />
    <path id="Path_3236" data-name="Path 3236" d="M22.878,4.275h-1.71l.007,2.074,1.7,1.445Z" transform="translate(-7.57 -0.978)"/>
  </g>
</svg>
