<svg xmlns="http://www.w3.org/2000/svg" width="27.02" height="23.94" viewBox="0 0 27.02 23.94">
  <g id="icon_1_" data-name="icon (1)" transform="translate(0 -1.54)">
    <path id="Path_444" data-name="Path 444" d="M3.674,24.876a.561.561,0,0,0,.566.6l6.811-.008.01-5.581s-.1-.92.8-.92h2.826a.876.876,0,0,1,.991.92l-.012,5.563H22.33a.7.7,0,0,0,.715-.752V14.413l-9.4-8.358L3.674,14.413S3.674,24.876,3.674,24.876Z" />
    <path id="Path_445" data-name="Path 445" d="M0,13.635s.847,1.561,2.694,0L13.732,4.3l10.349,9.28c2.138,1.542,2.939,0,2.939,0L13.732,1.54Z" />
    <path id="Path_446" data-name="Path 446" d="M23.83,4.275H21.168L21.179,7.5,23.83,9.752Z" />
  </g>
</svg>
