<svg xmlns="http://www.w3.org/2000/svg" width="12.401" height="9.57" viewBox="0 0 12.401 9.57">
  <g id="noun_id_448720" transform="translate(-4.8 -19.788)">
    <g id="Group_5492" data-name="Group 5492" transform="translate(5 19.988)">
      <path id="Path_489" data-name="Path 489" d="M16.093,19.988H5.908A.909.909,0,0,0,5,20.9V28.25a.909.909,0,0,0,.908.908H16.093A.909.909,0,0,0,17,28.25V20.9A.909.909,0,0,0,16.093,19.988Zm.545,8.262a.546.546,0,0,1-.545.545H5.908a.546.546,0,0,1-.545-.545V20.9a.546.546,0,0,1,.545-.545H16.093a.546.546,0,0,1,.545.545V28.25Z" transform="translate(-5 -19.988)" fill="#b2c1d0" stroke="#b2c1d0" stroke-width="0.4"/>
      <path id="Path_490" data-name="Path 490" d="M22.344,39.67l-.979-.6a1.394,1.394,0,0,0,.52-1.03l.037-.964a1.325,1.325,0,0,0-1.333-1.314h-.254A1.326,1.326,0,0,0,19,37.083l.036.957a1.4,1.4,0,0,0,.519,1.029l-.962.591a.791.791,0,0,0-.451.713v.486a.181.181,0,0,0,.181.181H22.6a.182.182,0,0,0,.181-.181v-.486A.781.781,0,0,0,22.344,39.67Zm.072,1.007H18.508v-.3a.437.437,0,0,1,.26-.394l1.224-.751a.181.181,0,0,0-.014-.317,1.038,1.038,0,0,1-.577-.885l-.036-.95a.961.961,0,0,1,.969-.951h.254a.96.96,0,0,1,.97.944l-.037.957a1.039,1.039,0,0,1-.579.886.182.182,0,0,0-.013.317l1.242.759a.427.427,0,0,1,.244.384v.3Z" transform="translate(-16.392 -33.659)" fill="#b2c1d0" stroke="#b2c1d0" stroke-width="0.4"/>
      <path id="Path_491" data-name="Path 491" d="M64.932,42.105H62.689a.181.181,0,1,0,0,.363h2.243a.181.181,0,1,0,0-.363Z" transform="translate(-54.84 -39.156)" fill="#b2c1d0" stroke="#b2c1d0" stroke-width="0.4"/>
      <path id="Path_492" data-name="Path 492" d="M64.932,54.193H62.689a.181.181,0,0,0,0,.363h2.243a.181.181,0,0,0,0-.363Z" transform="translate(-54.84 -49.632)" fill="#b2c1d0" stroke="#b2c1d0" stroke-width="0.4"/>
      <path id="Path_493" data-name="Path 493" d="M64.932,66.286H62.689a.181.181,0,1,0,0,.363h2.243a.181.181,0,1,0,0-.363Z" transform="translate(-54.84 -60.113)" fill="#b2c1d0" stroke="#b2c1d0" stroke-width="0.4"/>
    </g>
  </g>
</svg>
