<svg xmlns="http://www.w3.org/2000/svg" width="16.044" height="19.131" viewBox="0 0 16.044 19.131">
  <g id="policeman" transform="translate(-34.893)">
    <g id="Group_6122" data-name="Group 6122" transform="translate(34.893)">
      <path id="Path_3241" data-name="Path 3241" d="M236.924,274.132c-1.806-.694-2.326-.9-2.5-.937a.208.208,0,0,0-.139.035l-1.632,1.111a.181.181,0,0,0-.069.139.21.21,0,0,0,.035.139l.833.833-.937.937a.168.168,0,0,0,0,.243l.833,1.076L232.2,280a.158.158,0,0,0,0,.174.264.264,0,0,0,.139.069h6.944a.164.164,0,0,0,.174-.174C239.527,279.271,239.77,275.243,236.924,274.132Z" transform="translate(-223.45 -261.112)"/>
      <path id="Path_3242" data-name="Path 3242" d="M41.04,276.922l.833-1.077c.069-.069.035-.174,0-.243l-.937-.937.833-.834c.035-.035.069-.1.035-.139a.262.262,0,0,0-.069-.139L40.1,272.443a.208.208,0,0,0-.139-.035c-.139.035-.66.243-2.5.938-2.847,1.146-2.6,5.173-2.535,5.972a.164.164,0,0,0,.174.174h6.944a.181.181,0,0,0,.139-.069.155.155,0,0,0,0-.174Z" transform="translate(-34.893 -260.36)"/>
      <path id="Path_3243" data-name="Path 3243" d="M191.947,299.772l-.937-1.18.9-.9c.035-.035.035-.069.035-.139s-.035-.1-.035-.139l-1.007-1.007a.168.168,0,0,0-.243,0l-1.007,1.007a.168.168,0,0,0,0,.243l.9.9-.937,1.181a.26.26,0,0,0-.035.174l1.042,2.292a.2.2,0,0,0,.347,0l1.041-2.292A.215.215,0,0,0,191.947,299.772Z" transform="translate(-182.744 -283.245)" />
      <path id="Path_3244" data-name="Path 3244" d="M140.353,124.018a8.917,8.917,0,0,0-7.222,0c-.035.035-.07.069-.07.1a.209.209,0,0,0,.035.139c.764,1.181,2.812,1.215,3.229,1.215h.9c.417,0,2.465-.07,3.229-1.215a.21.21,0,0,0,.035-.139C140.423,124.087,140.388,124.018,140.353,124.018Z" transform="translate(-128.72 -117.803)" />
      <path id="Path_3245" data-name="Path 3245" d="M127.65,160.564h0a4.245,4.245,0,0,0,4.2-4.236v-.278c0-.069-.035-.139-.1-.139a.152.152,0,0,0-.173.035,5.263,5.263,0,0,1-3.4,1.111h-.937a5.067,5.067,0,0,1-3.4-1.111.152.152,0,0,0-.174-.035c-.07.035-.1.069-.1.139v.278A4.092,4.092,0,0,0,127.65,160.564Z" transform="translate(-119.628 -149.003)" />
      <path id="Path_3246" data-name="Path 3246" d="M94.645,4.791a.23.23,0,0,0,.208.035,10.277,10.277,0,0,1,8.576,0,.122.122,0,0,1,.069.035.127.127,0,0,0,.1-.035c.417-.382.729-.66.833-.764a.214.214,0,0,0,.035-.243.482.482,0,0,1-.1-.139,1.819,1.819,0,0,1-.521-.9l-.07-.243c-.069-.625-.1-.868-.729-.937h-.174a4.344,4.344,0,0,1-2.535-.9C99.644.07,99.366,0,99.158,0s-.486.07-1.18.694a4.343,4.343,0,0,1-2.535.9h-.174c-.625.069-.694.312-.8.9l-.07.243a2,2,0,0,1-.521.9c-.035.035-.069.1-.1.139-.069.07-.035.174.035.243C93.95,4.132,94.228,4.41,94.645,4.791Z" transform="translate(-91.136)" />
      <path id="Path_3247" data-name="Path 3247" d="M131.015,98.837a.474.474,0,0,0,.1-.139l.069-.347c0-.069-.035-.174-.1-.174a11.491,11.491,0,0,0-4.062-.833,11.3,11.3,0,0,0-4.062.833.191.191,0,0,0-.1.174l.069.347c0,.069.035.1.1.139.035,0,.035.035.069.035s.069,0,.069-.035a9.12,9.12,0,0,1,3.889-.764,9.231,9.231,0,0,1,3.888.764Z" transform="translate(-118.966 -93.039)" />
    </g>
  </g>
</svg>
