<svg xmlns="http://www.w3.org/2000/svg" width="16.5" height="16.5" viewBox="0 0 16.5 16.5">
  <g id="noun_QR_Code_78107" data-name="noun_QR Code_78107" transform="translate(7.5 43.5)">
    <g id="Group_6125" data-name="Group 6125" transform="translate(-14 -50)">
      <g id="Group_6124" data-name="Group 6124" transform="translate(6.5 6.5)">
        <path id="Path_3252" data-name="Path 3252" d="M19.625,9.875h-.75v.75h.75Zm1.5-1.5h-3.75v3.75h3.75Zm-.75,3h-2.25V9.125h2.25Zm-10.5-.75h.75v-.75h-.75Zm-1.5,1.5h3.75V8.375H8.375Zm.75-3h2.25v2.25H9.125Zm10.5,9.75h-.75v.75h.75Zm1.5-1.5h-3.75v3.75h3.75Zm-.75,3h-2.25v-2.25h2.25Zm-5.25-9.75h.75v-.75h.75v-.75h-.75v-.75h-2.25v.75h1.5v.75h-.75v1.5h.75Zm-.75.75h-.75v.75h.75Zm-1.5-.75v.75h.75v-.75Zm0-.75h.75v-.75h-.75Zm-1.5,3.75h-.75v.75h.75Zm3-.75v.75h2.25v-.75h-.75v-1.5h-.75v1.5Zm-.75-.75h-.75v1.5h.75Zm-1.5.75h-.75v.75h.75Zm-3,0v.75h1.5v-.75Zm3.75,1.5v-.75h-.75v.75Zm-1.5.75h.75v-.75h-.75Zm-3-.75h.75v-.75h-.75Zm0,.75v.75h.75v-.75Zm.75.75v.75h.75v-.75Zm-.75,1.5v1.5h.75v-.75h.75v-.75Zm1.5,1.5h1.5v-.75h-1.5Zm8.25-3.75v-.75h-.75v.75Zm-5.25,3.75h-.75v.75h.75Zm-.75.75H8.375v1.5h.75v-.75h.75v.75h.75v-.75h.75v.75h2.25v-.75h-1.5Zm3,1.5v-.75h-.75v.75Zm.75,0h.75v-.75h-.75Zm0-5.25h1.5v-.75h-.75v-.75h-.75v.75h-.75v2.25h1.5v-.75h-.75Zm-2.25,4.5h.75v-.75h-.75Zm-1.5-3h-.75v.75h1.5v-1.5h-.75Zm-.75-2.25h-.75v-.75h-.75v1.5h.75v.75h-.75v.75h1.5Zm3,3.75v.75h.75v-.75h.75v.75h.75v-1.5h-2.25v-1.5h-.75v2.25Zm-2.25-3h.75v.75h.75v-.75h.75v-.75h-2.25Zm1.5-1.5h.75v-.75h-.75Zm.75,0v.75h.75v-.75Zm3,0v-.75h-.75v.75Zm.75-1.5h-.75v.75h.75Zm.75,0v1.5h.75v-1.5Zm0,3v.75h.75v-.75h.75v-.75h.75v-1.5h-.75v.75h-.75v.75h-1.5v.75Zm-1.5.75h.75v-.75h-.75Zm3-10.125v.75H22.25V9.125H23V6.5ZM7.25,7.25H9.125V6.5H6.5V9.125h.75Zm0,13.125H6.5V23H9.125v-.75H7.25Zm15,1.875H20.375V23H23V20.375h-.75Zm-1.125-5.625v-.75h-.75v.75Z" transform="translate(-6.5 -6.5)"  fill-rule="evenodd"/>
      </g>
    </g>
  </g>
</svg>
