<svg xmlns="http://www.w3.org/2000/svg" width="16.994" height="17" viewBox="0 0 16.994 17">
  <g id="noun_Settings_2650515" transform="translate(-0.031 0)">
    <g id="Group_5488" data-name="Group 5488" transform="translate(0.031 0)">
      <path id="Path_487" data-name="Path 487" d="M16.971,7.559a.553.553,0,0,0-.547-.418,1.87,1.87,0,0,1-1.285-3.266.473.473,0,0,0,.053-.644,8.569,8.569,0,0,0-1.348-1.36.474.474,0,0,0-.648.053,1.954,1.954,0,0,1-2.118.478A1.894,1.894,0,0,1,9.931.555a.476.476,0,0,0-.418-.5A8.564,8.564,0,0,0,7.6.051.474.474,0,0,0,7.18.536,1.889,1.889,0,0,1,6.015,2.348a1.972,1.972,0,0,1-2.1-.478.473.473,0,0,0-.641-.053A8.44,8.44,0,0,0,1.9,3.178a.478.478,0,0,0,.049.648,1.882,1.882,0,0,1,.481,2.125A1.965,1.965,0,0,1,.576,7.093a.462.462,0,0,0-.49.418,8.356,8.356,0,0,0,0,1.931.547.547,0,0,0,.554.418,1.87,1.87,0,0,1,1.748,1.166,1.892,1.892,0,0,1-.474,2.1.473.473,0,0,0-.053.643,8.409,8.409,0,0,0,1.345,1.36.474.474,0,0,0,.648-.049A1.96,1.96,0,0,1,5.976,14.6a1.882,1.882,0,0,1,1.148,1.845.476.476,0,0,0,.418.5A8.758,8.758,0,0,0,8.521,17a7.99,7.99,0,0,0,.933-.053.474.474,0,0,0,.422-.488,1.885,1.885,0,0,1,1.161-1.812,1.962,1.962,0,0,1,2.1.485.473.473,0,0,0,.641.053,8.574,8.574,0,0,0,1.374-1.36.474.474,0,0,0-.049-.648A1.87,1.87,0,0,1,16.368,9.9h.105a.476.476,0,0,0,.5-.418,8.712,8.712,0,0,0,0-1.926ZM8.54,11.352a2.834,2.834,0,1,1,2.834-2.834A2.834,2.834,0,0,1,8.54,11.352Z" transform="translate(-0.031 0)" fill="#3496ff"/>
    </g>
  </g>
</svg>
