<svg xmlns="http://www.w3.org/2000/svg" width="16.5" height="15.24" viewBox="0 0 16.5 15.24">
  <g id="noun_logout_2265008" transform="translate(-1.047 -27.3)">
    <g id="Group_6135" data-name="Group 6135" transform="translate(4.765 30.683)">
      <path id="Path_3255" data-name="Path 3255" d="M131.9,141.4v-2.415a.667.667,0,0,1,.619-.708h5.288a.411.411,0,0,0,.38-.434V136.3l5.582,3.421a.542.542,0,0,1,0,.886l-5.586,3.472v-1.539a.411.411,0,0,0-.38-.434h-5.288A.664.664,0,0,1,131.9,141.4Z" transform="translate(-131.555 -135.955)" fill="#003165"/>
      <g id="Group_6134" data-name="Group 6134">
        <path id="Path_3256" data-name="Path 3256" d="M122.5,131.655v-2.21c0-.243.007-.554.291-.571.205-.014.414,0,.616,0h2.689c.646,0,1.3.021,1.943,0a.746.746,0,0,0,.694-.493,1.619,1.619,0,0,0,.051-.575v-1.245c-.171.1-.342.2-.513.294l1.987,1.218q1.524.934,3.044,1.864l.417.257a1.262,1.262,0,0,1,.157.1.2.2,0,0,1-.055.3c-.1.065-.195.12-.291.181l-2.87,1.785c-.5.311-1.006.626-1.508.937-.277.171-.568.332-.838.52a.256.256,0,0,1-.041.024c.171.1.342.2.513.294,0-.51.017-1.023,0-1.532a.764.764,0,0,0-.756-.78c-.15,0-.3,0-.455,0h-4.69c-.038,0-.075,0-.109,0a.35.35,0,0,1-.277-.369c-.014-.438-.7-.441-.684,0a1.025,1.025,0,0,0,.965,1.05c.12,0,.236,0,.356,0H127.8a1.6,1.6,0,0,1,.253,0c.062.031.041.157.041.222v1.409a.343.343,0,0,0,.513.294c.691-.431,1.382-.859,2.076-1.29q1.529-.949,3.058-1.9c.263-.164.616-.325.756-.612a.9.9,0,0,0-.311-1.146c-.072-.048-.147-.092-.222-.137q-1.426-.872-2.856-1.748c-.818-.5-1.625-1.026-2.456-1.505-.014-.01-.031-.017-.044-.027a.344.344,0,0,0-.513.294v1.084c0,.147.014.3,0,.448-.007.082-.014.092-.072.1a4.66,4.66,0,0,1-.691,0h-3.951c-.2,0-.4-.007-.6,0a1.034,1.034,0,0,0-.968,1.1c-.007.79,0,1.577,0,2.367A.342.342,0,0,0,122.5,131.655Z" transform="translate(-121.811 -126.213)" fill="#003165"/>
      </g>
    </g>
    <g id="Group_6137" data-name="Group 6137" transform="translate(1.047 27.3)">
      <g id="Group_6136" data-name="Group 6136" transform="translate(0 0)">
        <path id="Path_3257" data-name="Path 3257" d="M22.89,27.3H15.242a2.087,2.087,0,0,0-1.82.93,2.3,2.3,0,0,0-.308,1.3v8.921c0,.691-.007,1.382,0,2.073a2.023,2.023,0,0,0,1.806,2,7,7,0,0,0,.8.014h7.169a.513.513,0,1,0,0-1.026H15.112c-.031,0-.065,0-.1,0-.1,0-.027,0,0,0a.874.874,0,0,1-.092-.017,1.3,1.3,0,0,1-.154-.044c-.014,0-.1-.041-.044-.017s-.051-.027-.062-.034c-.044-.024-.089-.055-.133-.082-.065-.041.055.051,0,0l-.068-.058c-.038-.034-.072-.075-.109-.113-.065-.068-.014-.021,0,0l-.062-.092c-.027-.044-.051-.092-.075-.14.044.092-.021-.065-.027-.089-.014-.051-.027-.106-.038-.157-.014-.079,0,.079,0,0,0-.041,0-.079,0-.12v-9.1c0-.7,0-1.409,0-2.114V29.25c0-.031,0-.062.007-.1,0,.007-.014.079,0,.021A1.041,1.041,0,0,1,14.185,29c.01-.031.065-.154.021-.068.031-.062.065-.12.1-.178a.31.31,0,0,1,.038-.055c-.051.075-.01.014,0,0a1.44,1.44,0,0,1,.123-.127.558.558,0,0,1,.068-.058c-.007.007-.062.044-.014.014s.116-.068.174-.1c.017-.01.089-.041,0,0,.021-.007.041-.017.065-.024a1.049,1.049,0,0,1,.178-.048c.024,0,.044-.01.068-.014-.1.017-.017,0,0,0s.065,0,.1,0c.239,0,.475,0,.715,0h7.063a.517.517,0,0,0,0-1.033Z" transform="translate(-13.111 -27.3)" fill="#003165"/>
      </g>
    </g>
  </g>
</svg>
