<svg xmlns="http://www.w3.org/2000/svg" width="14" height="18.261" viewBox="0 0 14 18.261">
  <path id="user" d="M19.483,13.053,16.575,11.6a.8.8,0,0,1-.445-.72V9.851c.07-.085.143-.182.219-.289a6.965,6.965,0,0,0,.9-1.765,1.208,1.208,0,0,0,.708-1.1V5.478a1.214,1.214,0,0,0-.3-.8V3.061a2.728,2.728,0,0,0-.637-1.986A3.831,3.831,0,0,0,14,0a3.832,3.832,0,0,0-3.015,1.074,2.729,2.729,0,0,0-.637,1.986V4.679a1.214,1.214,0,0,0-.3.8V6.7a1.21,1.21,0,0,0,.456.946,6.387,6.387,0,0,0,1.066,2.2v1.007a.8.8,0,0,1-.419.706L8.431,13.039A2.744,2.744,0,0,0,7,15.449v.985c0,1.444,4.579,1.826,7,1.826s7-.382,7-1.826v-.926A2.731,2.731,0,0,0,19.483,13.053Z" transform="translate(-7)" />
</svg>
