<svg id="Group_5456" data-name="Group 5456" xmlns="http://www.w3.org/2000/svg" width="42.25" height="27.333" viewBox="0 0 42.25 27.333">
  <path id="Path_454" data-name="Path 454" d="M41.215,55.657a3.829,3.829,0,0,0-2.486-.836H3.521a3.831,3.831,0,0,0-2.487.836A2.511,2.511,0,0,0,0,57.668V79.307a2.511,2.511,0,0,0,1.034,2.011,3.831,3.831,0,0,0,2.487.836H38.729a3.829,3.829,0,0,0,2.486-.836,2.511,2.511,0,0,0,1.034-2.011V57.668A2.511,2.511,0,0,0,41.215,55.657Zm-1.782,23.65a.5.5,0,0,1-.209.4.765.765,0,0,1-.495.168H3.521a.763.763,0,0,1-.5-.169.5.5,0,0,1-.209-.4V68.488H39.433v10.82Zm0-17.653H2.817V57.668a.5.5,0,0,1,.209-.4.765.765,0,0,1,.5-.169H38.729a.763.763,0,0,1,.495.169.5.5,0,0,1,.209.4v3.986Z" transform="translate(0 -54.821)" fill="#fff"/>
  <rect id="Rectangle_1013" data-name="Rectangle 1013" width="5.633" height="2.817" transform="translate(5.633 20.059)" fill="#fff"/>
  <rect id="Rectangle_1014" data-name="Rectangle 1014" width="8.45" height="2.817" transform="translate(14.083 20.059)" fill="#fff"/>
</svg>
