<svg xmlns="http://www.w3.org/2000/svg" width="21.098" height="21.098" viewBox="0 0 21.098 21.098">
  <g id="noun_Location_1608718" transform="translate(-25.7 -41.564)">
    <g id="Group_175" data-name="Group 175" transform="translate(25.7 41.564)">
      <g id="Group_164" data-name="Group 164" transform="translate(2.725 2.726)">
        <g id="Group_163" data-name="Group 163">
          <path id="Path_301" data-name="Path 301" d="M176.964,170.967a7.25,7.25,0,0,1-.063.935c.011-.078.022-.159.031-.238a7.025,7.025,0,0,1-.475,1.747c.029-.072.061-.143.09-.215a7.1,7.1,0,0,1-.908,1.554l.141-.182a7.1,7.1,0,0,1-1.244,1.244l.182-.141a7.048,7.048,0,0,1-1.554.908l.215-.09a7.051,7.051,0,0,1-1.747.475c.078-.011.159-.022.238-.031a7.056,7.056,0,0,1-1.87,0c.078.011.159.022.238.031a7.024,7.024,0,0,1-1.747-.475l.215.09a7.1,7.1,0,0,1-1.554-.908l.182.141a7.105,7.105,0,0,1-1.244-1.244l.141.182a7.048,7.048,0,0,1-.908-1.554c.029.072.061.143.09.215a7.051,7.051,0,0,1-.475-1.747c.011.078.022.159.031.238a7.056,7.056,0,0,1,0-1.87c-.011.078-.022.159-.031.238a7.024,7.024,0,0,1,.475-1.747c-.029.072-.061.143-.09.215a7.1,7.1,0,0,1,.908-1.554l-.141.182a7.1,7.1,0,0,1,1.244-1.244l-.182.141a7.048,7.048,0,0,1,1.554-.908l-.215.09a7.051,7.051,0,0,1,1.747-.475c-.078.011-.159.022-.238.031a7.056,7.056,0,0,1,1.87,0c-.078-.011-.159-.022-.238-.031a7.025,7.025,0,0,1,1.747.475l-.215-.09a7.1,7.1,0,0,1,1.554.908l-.182-.141a7.1,7.1,0,0,1,1.244,1.244l-.141-.182a7.047,7.047,0,0,1,.908,1.554c-.029-.072-.061-.143-.09-.215a7.051,7.051,0,0,1,.475,1.747c-.011-.078-.022-.159-.031-.238a6.87,6.87,0,0,1,.063.935.9.9,0,1,0,1.794,0,7.791,7.791,0,0,0-1.41-4.475,7.548,7.548,0,0,0-1.747-1.8,7.8,7.8,0,0,0-10.648,1.242,8.589,8.589,0,0,0-.733,1.022,8.382,8.382,0,0,0-.556,1.141,7.68,7.68,0,0,0-.527,2.316,7.8,7.8,0,0,0,4.5,7.637,8.763,8.763,0,0,0,1.2.448,8.613,8.613,0,0,0,1.287.238,7.8,7.8,0,0,0,8.522-6.478,8.668,8.668,0,0,0,.112-1.3.9.9,0,0,0-1.8,0Z" transform="translate(-163.115 -163.145)" fill="#003165"/>
        </g>
      </g>
      <g id="Group_166" data-name="Group 166" transform="translate(9.651)">
        <g id="Group_165" data-name="Group 165">
          <path id="Path_302" data-name="Path 302" d="M473.794,45.188V42.462a.9.9,0,1,0-1.794,0v2.726a.9.9,0,0,0,1.794,0Z" transform="translate(-472 -41.564)" fill="#003165"/>
        </g>
      </g>
      <g id="Group_168" data-name="Group 168" transform="translate(9.651 16.576)">
        <g id="Group_167" data-name="Group 167">
          <path id="Path_303" data-name="Path 303" d="M473.794,784.488v-2.726a.9.9,0,0,0-1.794,0v2.726a.9.9,0,0,0,1.794,0Z" transform="translate(-472 -780.864)" fill="#003165"/>
        </g>
      </g>
      <g id="Group_170" data-name="Group 170" transform="translate(0 9.651)">
        <g id="Group_169" data-name="Group 169">
          <path id="Path_304" data-name="Path 304" d="M45.188,472H42.462a.9.9,0,1,0,0,1.794h2.726a.9.9,0,0,0,0-1.794Z" transform="translate(-41.564 -472)" fill="#003165"/>
        </g>
      </g>
      <g id="Group_172" data-name="Group 172" transform="translate(16.576 9.651)">
        <g id="Group_171" data-name="Group 171">
          <path id="Path_305" data-name="Path 305" d="M784.488,472h-2.726a.9.9,0,0,0,0,1.794h2.726a.9.9,0,0,0,0-1.794Z" transform="translate(-780.864 -472)" fill="#003165"/>
        </g>
      </g>
      <g id="Group_174" data-name="Group 174" transform="translate(7.572 7.567)">
        <g id="Group_173" data-name="Group 173">
          <path id="Path_306" data-name="Path 306" d="M383.455,382.041a2.354,2.354,0,0,1-.018.28c.011-.078.022-.159.031-.238a2.122,2.122,0,0,1-.141.522c.029-.072.061-.143.09-.215a2.285,2.285,0,0,1-.265.46l.141-.182a2.168,2.168,0,0,1-.392.392l.182-.141a2.128,2.128,0,0,1-.46.265l.215-.09a2.121,2.121,0,0,1-.522.141c.078-.011.159-.022.238-.031a2.133,2.133,0,0,1-.561,0c.078.011.159.022.238.031a2.122,2.122,0,0,1-.522-.141l.215.09a2.286,2.286,0,0,1-.46-.265l.182.141a2.167,2.167,0,0,1-.392-.392l.141.182a2.127,2.127,0,0,1-.265-.46c.029.072.061.143.09.215a2.123,2.123,0,0,1-.141-.522c.011.078.022.159.031.238a2.13,2.13,0,0,1,0-.561c-.011.078-.022.159-.031.238a2.123,2.123,0,0,1,.141-.522c-.029.072-.061.143-.09.215a2.285,2.285,0,0,1,.265-.46l-.141.182a2.166,2.166,0,0,1,.392-.392l-.182.141a2.13,2.13,0,0,1,.46-.265l-.215.09a2.121,2.121,0,0,1,.522-.141c-.078.011-.159.022-.238.031a2.13,2.13,0,0,1,.561,0c-.078-.011-.159-.022-.238-.031a2.12,2.12,0,0,1,.522.141l-.215-.09a2.287,2.287,0,0,1,.46.265l-.182-.141a2.167,2.167,0,0,1,.392.392l-.141-.182a2.128,2.128,0,0,1,.265.46c-.029-.072-.061-.143-.09-.215a2.122,2.122,0,0,1,.141.522c-.011-.078-.022-.159-.031-.238a2.354,2.354,0,0,1,.018.28.931.931,0,0,0,.262.635.9.9,0,0,0,1.531-.635,2.93,2.93,0,0,0-.513-1.668,3.358,3.358,0,0,0-.749-.762,2.906,2.906,0,0,0-.756-.388,2.965,2.965,0,0,0-3.211.877,3.293,3.293,0,0,0-.531.9,2.9,2.9,0,0,0-.186.886,2.958,2.958,0,0,0,1.661,2.827,3.3,3.3,0,0,0,1.06.291,2.95,2.95,0,0,0,2.482-1,3.312,3.312,0,0,0,.574-.98,2.846,2.846,0,0,0,.17-.987.905.905,0,0,0-.9-.9A.915.915,0,0,0,383.455,382.041Z" transform="translate(-379.295 -379.06)" fill="#003165"/>
        </g>
      </g>
    </g>
  </g>
</svg>
