<svg xmlns="http://www.w3.org/2000/svg" width="15.972" height="17.424" viewBox="0 0 15.972 17.424">
  <g id="street-view" transform="translate(-21.333)">
    <g id="Group_4977" data-name="Group 4977" transform="translate(21.333 0)">
      <g id="Group_4976" data-name="Group 4976">
        <circle id="Ellipse_31" data-name="Ellipse 31" cx="1.815" cy="1.815" r="1.815" transform="translate(6.171)" fill="#fff"/>
        <path id="Path_449" data-name="Path 449" d="M31.5,136.075v-1.541h.726a.363.363,0,0,0,.363-.363v-4.329a1.071,1.071,0,0,0-.479-.906,4.623,4.623,0,0,0-5.577,0,1.07,1.07,0,0,0-.479.906v4.329a.363.363,0,0,0,.363.363h.726v1.541c-2.385.184-5.808.745-5.808,2.452,0,.619.448,1.134,1.324,1.533l-.134.243a.363.363,0,0,0,.318.538.355.355,0,0,0,.088-.011l1.452-.363a.362.362,0,0,0,.247-.492l-.542-1.294a.364.364,0,0,0-.316-.222.357.357,0,0,0-.337.188l-.08.146c-.012-.006-.02-.018-.033-.023a2.24,2.24,0,0,1-.452-.247,10.265,10.265,0,0,1,4.274-1v1a.363.363,0,0,0,.363.363h3.63a.363.363,0,0,0,.363-.363v-1a10.186,10.186,0,0,1,4.281,1c-.549.436-2.89,1.089-6.459,1.089a.726.726,0,0,0,0,1.452c.817,0,7.986-.071,7.986-2.541C37.3,136.82,33.882,136.259,31.5,136.075Z" transform="translate(-21.333 -123.644)" fill="#fff"/>
      </g>
    </g>
  </g>
</svg>
